<?xml version="1.0" encoding="utf-8"?>
<!-- Generator: Adobe Illustrator 25.2.3, SVG Export Plug-In . SVG Version: 6.00 Build 0)  -->
<svg version="1.1" id="Layer_1" xmlns="http://www.w3.org/2000/svg" xmlns:xlink="http://www.w3.org/1999/xlink" x="0px" y="0px"
	 viewBox="0 0 217.4 80.1" style="enable-background:new 0 0 217.4 80.1;" xml:space="preserve">
<style type="text/css">
	.st0{fill:#848484;}
	.st1{fill:#D1171A;}
	.st2{fill:#FFFFFF;}
</style>
<desc>Created with Sketch.</desc>
<g>
	<path class="st0" d="M40.1,77.7C19.2,77.7,2.4,60.8,2.4,40S19.3,2.3,40.1,2.3S77.8,19.2,77.8,40l0,0C77.7,60.8,60.9,77.7,40.1,77.7
		z M40.1,2.6C19.4,2.6,2.7,19.4,2.7,40s16.7,37.4,37.4,37.4S77.4,60.7,77.4,40C77.4,19.4,60.7,2.7,40.1,2.6L40.1,2.6z"/>
	<path class="st0" d="M40.1,80.1C17.9,80.1,0,62.1,0,40S17.9,0,40.1,0s40,17.9,40,40l0,0C80.1,62.1,62.2,80,40.1,80.1z M40.1,0.2
		C18.1,0.2,0.2,18,0.2,40S18,79.8,40,79.8S79.9,62,79.9,40l0,0C79.8,18,62,0.2,40.1,0.2z"/>
	<path class="st0" d="M7,32.9l2.9,0.8c1.1,0.3,1.7-0.1,1.9-0.7c0.2-0.7-0.2-1.3-1.3-1.6l-2.9-0.8L7.8,30l2.9,0.8
		c1.5,0.4,1.9,1.4,1.6,2.5c-0.3,1-1.1,1.6-2.6,1.2l-2.9-0.8L7,32.9z"/>
	<path class="st0" d="M13.1,30.4l-4.7-2.2l0.3-0.7l3.1-0.4c0.6-0.1,1.3-0.1,1.9-0.1l0,0c-0.6-0.2-1.2-0.5-2-0.8l-2-0.9l0.3-0.6
		l4.7,2.2l-0.3,0.6l-3.1,0.4C10.6,28,10,28,9.3,28l0,0c0.6,0.2,1.2,0.5,2,0.9l2,0.9L13.1,30.4z"/>
	<path class="st0" d="M11.3,22.8l4.4,2.7L15.3,26l-4.4-2.7L11.3,22.8z"/>
	<path class="st0" d="M13.2,21l-1,1.2l-0.5-0.3l2.3-3l0.5,0.3l-1,1.3l3.7,2.8l-0.4,0.5L13.2,21z"/>
	<path class="st0" d="M18.6,18.1l-1.4,1.4l1.3,1.3l1.6-1.6l0.4,0.4l-2,2.1l-3.7-3.6l2-2l0.4,0.4L15.7,18l1.2,1.1l1.4-1.4L18.6,18.1z
		"/>
	<path class="st0" d="M18,15.1c0.3-0.3,0.7-0.7,1.1-0.9c0.8-0.6,1.4-0.8,2.1-0.7s1.3,0.5,1.7,1c0.5,0.6,0.7,1.3,0.6,2
		c-0.1,0.7-0.6,1.4-1.4,2c-0.3,0.2-0.7,0.5-1,0.7L18,15.1z M21.3,18.4c0.2-0.1,0.4-0.2,0.6-0.4c1.1-0.9,1.3-2,0.4-3.1
		c-0.7-1-1.7-1.2-2.9-0.3c-0.2,0.2-0.4,0.3-0.6,0.5L21.3,18.4z"/>
	<path class="st0" d="M24.2,10.9c0.3-0.2,0.7-0.4,1.1-0.6c0.4-0.3,0.9-0.3,1.4-0.3c0.3,0.1,0.6,0.3,0.8,0.6c0.2,0.5,0.1,1-0.3,1.4
		l0,0c0.6-0.1,1.2,0.2,1.5,0.7c0.2,0.4,0.2,0.8,0,1.1c-0.2,0.4-0.6,0.8-1.4,1.2c-0.3,0.1-0.6,0.3-1,0.4L24.2,10.9z M25.7,12.6
		l0.6-0.3c0.6-0.3,0.9-0.8,0.6-1.3s-0.8-0.6-1.4-0.3c-0.2,0.1-0.4,0.2-0.5,0.3L25.7,12.6z M26.7,14.8c0.2-0.1,0.4-0.1,0.5-0.2
		c0.6-0.3,1.1-0.8,0.8-1.5c-0.3-0.7-1-0.6-1.6-0.3L25.9,13L26.7,14.8z"/>
	<path class="st0" d="M30.3,12.2l-0.1,1.7l-0.7,0.2l0.2-5.4l0.8-0.2l3.1,4.5l-0.5,0l-1-1.4L30.3,12.2z M31.8,11.2l-0.9-1.3
		c-0.2-0.3-0.4-0.6-0.5-0.8l0,0c0,0.3,0,0.6,0,1l-0.1,1.6L31.8,11.2z"/>
	<path class="st0" d="M34.3,12.8l-0.6-5.1l0.7-0.1l2,2.4c0.4,0.5,0.8,1,1.1,1.6l0,0c-0.1-0.7-0.2-1.3-0.3-2.1l-0.3-2.1l0.6-0.1
		l0.6,5.1l-0.7,0.1L35.5,10c-0.4-0.5-0.8-1-1.2-1.6l0,0c0.1,0.6,0.2,1.3,0.3,2.1l0.3,2.2L34.3,12.8z"/>
	<path class="st0" d="M39.3,7.1H40l-0.1,2.5l0,0c0.1-0.2,0.3-0.4,0.4-0.5L42,7.2h0.8l-1.9,2.1l1.9,3H42l-1.6-2.6l-0.5,0.6l-0.1,2
		h-0.7L39.3,7.1z"/>
	<path class="st0" d="M45.8,7.7l2.7,0.6l-0.1,0.5l-2.1-0.5L45.9,10l1.9,0.4L47.7,11l-1.9-0.4l-0.5,2.3l-0.6-0.1L45.8,7.7z"/>
	<path class="st0" d="M53.2,12.7c-0.6,1.7-2,2.1-3.2,1.7c-1.2-0.5-1.8-1.8-1.2-3.3S50.7,9,52,9.5S53.7,11.2,53.2,12.7z M49.4,11.3
		c-0.4,1-0.2,2.2,0.8,2.6s1.9-0.3,2.3-1.4c0.4-1,0.3-2.1-0.8-2.6C50.7,9.5,49.8,10.2,49.4,11.3L49.4,11.3z"/>
	<path class="st0" d="M55.3,11.1c0.4,0.1,0.8,0.3,1.2,0.6c0.6,0.4,0.9,0.7,1.1,1.1c0.1,0.4,0,0.7-0.2,1.1c-0.3,0.5-0.9,0.8-1.5,0.6
		l0,0c0.3,0.3,0.3,0.8,0.1,1.3c-0.2,0.5-0.3,0.9-0.4,1.4L55,16.8c0.1-0.4,0.2-0.8,0.3-1.2c0.2-0.7,0.1-1.1-0.4-1.4l-0.5-0.3
		l-1.1,1.9l-0.6-0.3L55.3,11.1z M54.7,13.5l0.6,0.3c0.6,0.4,1.2,0.3,1.5-0.3s0.1-1.1-0.5-1.4c-0.2-0.1-0.4-0.2-0.6-0.3L54.7,13.5z"
		/>
	<path class="st0" d="M59.1,17.8l-1.5,0.8l-0.5-0.5l4.8-2.6l0.6,0.5l-2.2,5l-0.5-0.5l0.7-1.6L59.1,17.8z M60.7,18.6l0.6-1.4
		c0.1-0.3,0.3-0.6,0.4-0.9l0,0c-0.3,0.2-0.5,0.3-0.8,0.5l-1.4,0.8L60.7,18.6z"/>
	<path class="st0" d="M64.6,18.3l1.8,2.1L66,20.8l-1.4-1.6l-1.3,1.1l1.2,1.5l-0.4,0.4l-1.2-1.5l-1.8,1.5l-0.4-0.5L64.6,18.3z"/>
	<path class="st0" d="M67.2,21.6c0.3,0.3,0.5,0.7,0.8,1c0.4,0.6,0.5,1.1,0.4,1.5s-0.3,0.7-0.6,0.9c-0.5,0.3-1.2,0.3-1.6-0.1l0,0
		c0.1,0.4-0.1,0.8-0.5,1.2c-0.4,0.3-0.7,0.7-1,1.1l-0.4-0.6c0.3-0.3,0.5-0.7,0.9-1c0.5-0.5,0.6-0.9,0.3-1.4l-0.3-0.5l-1.9,1.2
		l-0.4-0.6L67.2,21.6z M65.5,23.4l0.4,0.6c0.4,0.6,1,0.8,1.4,0.5c0.6-0.4,0.6-0.9,0.2-1.5c-0.1-0.2-0.2-0.4-0.4-0.5L65.5,23.4z"/>
	<path class="st0" d="M69.8,26.1l-4.6,2.3l-0.3-0.6l4.6-2.3L69.8,26.1z"/>
	<path class="st0" d="M67.1,32.6c-0.3-0.3-0.6-0.8-0.7-1.2c-0.5-1.4,0-2.7,1.6-3.3c1.3-0.6,2.8,0,3.4,1.3c0,0.1,0.1,0.2,0.1,0.3
		c0.2,0.4,0.2,0.8,0.2,1.2h-0.6c0-0.4,0-0.7-0.2-1.1c-0.4-1.1-1.4-1.6-2.7-1.1c-1.2,0.4-1.7,1.4-1.3,2.6c0.1,0.4,0.3,0.7,0.6,0.9
		L67.1,32.6z"/>
	<path class="st0" d="M68.8,33.8l-1.7-0.2L67,32.9l5.4,0.7l0.2,0.8l-4.7,2.8l-0.1-0.7l1.5-0.9L68.8,33.8z M69.7,35.4l1.4-0.8
		c0.3-0.2,0.6-0.3,0.9-0.4l0,0c-0.3,0-0.6,0-1-0.1l-1.6-0.2L69.7,35.4z"/>
	<path class="st0" d="M13.8,58.6l-1.6,0.6l-0.4-0.5l5.2-1.8l0.5,0.6l-3,4.5L14,61.5l1-1.4L13.8,58.6z M15.3,59.6l0.9-1.3
		c0.2-0.3,0.4-0.5,0.6-0.8l0,0c-0.3,0.1-0.6,0.2-0.9,0.4l-1.5,0.5L15.3,59.6z"/>
	<path class="st0" d="M18.9,59.2l0.5,0.5L16.2,63l1.6,1.5l-0.4,0.4l-2-2L18.9,59.2z"/>
	<path class="st0" d="M21.6,61.8l-1.8,2.4c-0.7,0.9-0.6,1.6,0,2c0.6,0.5,1.3,0.4,2-0.6l1.8-2.4l0.5,0.4L22.3,66
		c-1,1.3-2,1.3-2.9,0.6c-0.8-0.6-1.1-1.6-0.2-2.9l1.8-2.4L21.6,61.8z"/>
	<path class="st0" d="M27.4,68.7c0.3-0.7,0.6-1.5,0.9-2l0,0c-0.4,0.5-0.9,0.9-1.5,1.5L24.9,70l-0.5-0.2l0.3-2.6
		c0.1-0.8,0.2-1.4,0.4-2.1l0,0c-0.3,0.6-0.7,1.3-1.1,2L23,69l-0.6-0.3l2.6-4.5l0.8,0.4l-0.3,2.6c-0.1,0.7-0.2,1.2-0.3,1.8l0,0
		c0.3-0.4,0.8-0.8,1.3-1.3l1.9-1.8l0.8,0.4l-2,4.8l-0.6-0.3L27.4,68.7z"/>
	<path class="st0" d="M28.7,71.6l1.4-5l0.7,0.2l0.9,3c0.2,0.6,0.3,1.2,0.4,1.9l0,0c0.1-0.7,0.3-1.3,0.5-2.1l0.6-2.1l0.6,0.2l-1.4,5
		l-0.6-0.2l-0.9-3c-0.2-0.6-0.3-1.3-0.5-1.9l0,0c-0.1,0.6-0.3,1.2-0.5,2.1l-0.6,2.1L28.7,71.6z"/>
	<path class="st0" d="M35.4,67.9L34.6,73l-0.7-0.1l0.8-5.1L35.4,67.9z"/>
	<path class="st0" d="M37.9,73.4l-0.1-5.2h0.7l1.7,2.6c0.4,0.5,0.7,1.1,1,1.7l0,0c-0.1-0.7-0.1-1.3-0.1-2.1v-2.2h0.6l0.1,5.2h-0.7
		l-1.7-2.6c-0.4-0.5-0.7-1.1-1-1.7l0,0c0,0.6,0.1,1.3,0.1,2.1v2.2H37.9z"/>
	<path class="st0" d="M45.7,70.4l-2,0.3l0.3,1.8l2.2-0.3l0.1,0.6l-2.9,0.4l-0.8-5.1l2.8-0.4l0.1,0.6l-2.1,0.3l0.2,1.6l2-0.3
		L45.7,70.4z"/>
	<path class="st0" d="M47.3,67.7l-1.5,0.4l-0.2-0.5l3.7-1.1l0.2,0.5L48,67.5l1.3,4.4l-0.6,0.2L47.3,67.7z"/>
	<path class="st0" d="M52.9,70.7l-3.5-4l0.6-0.3l1.7,2.1c0.4,0.5,0.8,1,1.1,1.4l0,0c-0.2-0.5-0.3-1.1-0.4-1.8L52,65.4l0.6-0.3
		l1.7,2.1c0.4,0.5,0.8,1,1.1,1.4l0,0c-0.2-0.6-0.3-1.1-0.4-1.8l-0.5-2.6l0.6-0.3l1,5.3l-0.6,0.3l-1.7-2.1c-0.4-0.4-0.7-0.9-1.1-1.4
		l0,0c0.2,0.6,0.3,1.1,0.4,1.7l0.5,2.7L52.9,70.7z"/>
	<path class="st0" d="M60.3,62.9c1.1,1.4,0.8,2.8-0.2,3.6c-1,0.8-2.5,0.6-3.4-0.7c-1-1.3-0.8-2.8,0.2-3.6
		C58,61.4,59.4,61.7,60.3,62.9z M57.2,65.4c0.7,0.9,1.7,1.3,2.6,0.6c0.8-0.6,0.7-1.8,0-2.7c-0.6-0.8-1.7-1.3-2.6-0.7
		S56.5,64.5,57.2,65.4z"/>
	<path class="st0" d="M59.2,60.5c0.2-0.4,0.5-0.7,0.8-1c0.5-0.5,0.9-0.8,1.3-0.8c0.4,0,0.7,0.1,1,0.4c0.4,0.4,0.6,1.1,0.3,1.6l0,0
		c0.4-0.2,0.8-0.1,1.3,0.2c0.4,0.3,0.8,0.5,1.3,0.7l-0.5,0.5c-0.4-0.2-0.8-0.4-1.1-0.6c-0.6-0.4-1-0.4-1.4,0.1L61.7,62l1.6,1.5
		L62.9,64L59.2,60.5z M61.4,61.6l0.5-0.5c0.5-0.5,0.5-1.1,0.1-1.5c-0.5-0.5-1-0.3-1.5,0.2c-0.2,0.2-0.3,0.3-0.4,0.5L61.4,61.6z"/>
	<path class="st0" d="M61.8,57.6l0.4-0.5l2,1.5l0,0C64.1,58.4,64,58.2,64,58l-0.6-2.4l0.5-0.7l0.7,2.8l3.6,0.1l-0.5,0.6l-3.1-0.1
		l0.2,0.7l1.6,1.1L66,60.6L61.8,57.6z"/>
	<path class="st0" d="M89.1,55.7l-0.8,2.6h-1.1l2.8-8.2h1.3l2.8,8.2H93l-1-2.6H89.1z M91.8,54.9L91,52.6c-0.2-0.5-0.3-1-0.4-1.5l0,0
		c-0.1,0.5-0.3,1-0.4,1.5L89.4,55L91.8,54.9z"/>
	<path class="st0" d="M97.8,50.1h1.1v7.3h3.5v0.9h-4.5L97.8,50.1L97.8,50.1z"/>
	<path class="st0" d="M106.8,50.1V55c0,1.8,0.8,2.6,1.9,2.6c1.2,0,2-0.8,2-2.6v-4.8h1.1V55c0,2.5-1.3,3.5-3.1,3.5
		c-1.7,0-2.9-1-2.9-3.5v-4.8L106.8,50.1z"/>
	<path class="st0" d="M123.1,54.7c-0.1-1.1-0.1-2.5-0.1-3.5l0,0c-0.3,1-0.6,2-1,3.1l-1.4,4h-0.8l-1.3-3.9c-0.4-1.1-0.7-2.2-1-3.2
		l0,0c0,1-0.1,2.4-0.2,3.6l-0.2,3.5h-1l0.6-8.2h1.3l1.4,3.9c0.3,1,0.6,1.9,0.8,2.7l0,0c0.2-0.8,0.5-1.7,0.9-2.7l1.5-3.9h1.3l0.5,8.2
		h-1L123.1,54.7z"/>
	<path class="st0" d="M128.6,58.3v-8.2h1.1l2.6,4.1c0.5,0.9,1,1.7,1.5,2.6l0,0c-0.1-1.1-0.1-2.1-0.1-3.4V50h1v8.2h-1.1l-2.6-4.1
		c-0.6-0.9-1.1-1.8-1.5-2.7l0,0c0.1,1,0.1,2,0.1,3.4v3.5C129.6,58.3,128.6,58.3,128.6,58.3z"/>
	<path class="st0" d="M140.3,50.1v8.2h-1.1v-8.2H140.3z"/>
	<path class="st0" d="M150,58.3v-8.2h1.1l2.6,4.1c0.5,0.9,1,1.7,1.5,2.6l0,0c-0.1-1.1-0.1-2.1-0.1-3.4V50h1v8.2H155l-2.6-4.1
		c-0.6-0.9-1.1-1.8-1.5-2.7l0,0c0.1,1,0.1,2,0.1,3.4v3.5C151,58.3,150,58.3,150,58.3z"/>
	<path class="st0" d="M164.9,54.5h-3.2v2.9h3.5v0.9h-4.6v-8.2h4.4V51h-3.4v2.6h3.2L164.9,54.5z"/>
	<path class="st0" d="M171,51h-2.5v-0.9h6V51H172v7.3h-1V51z"/>
	<path class="st0" d="M180,58.3l-2.1-8.2h1.1l1,4.1c0.2,1,0.5,2,0.6,2.8l0,0c0.1-0.8,0.4-1.8,0.7-2.8l1.1-4.1h1.1l1,4.1
		c0.2,1,0.4,1.9,0.6,2.8l0,0c0.2-0.9,0.4-1.8,0.6-2.8l1.1-4.1h1.1l-2.3,8.2h-1.1l-1-4.2c-0.2-0.9-0.4-1.8-0.5-2.7l0,0
		c-0.2,0.9-0.4,1.8-0.6,2.7l-1.2,4.2H180z"/>
	<path class="st0" d="M198.5,54.1c0,2.8-1.7,4.3-3.8,4.3c-2.2,0-3.7-1.7-3.7-4.1c0-2.6,1.6-4.3,3.8-4.3S198.5,51.7,198.5,54.1z
		 M192.2,54.3c0,1.7,0.9,3.3,2.6,3.3c1.7,0,2.6-1.5,2.6-3.4c0-1.6-0.8-3.3-2.6-3.3C193,50.9,192.2,52.5,192.2,54.3L192.2,54.3z"/>
	<path class="st0" d="M202.5,50.3c0.7-0.1,1.3-0.2,2-0.2c1.1,0,1.9,0.2,2.4,0.7c0.4,0.4,0.7,1,0.6,1.6c0,1-0.6,1.8-1.5,2.1l0,0
		c0.6,0.2,1,0.8,1.2,1.6c0.1,0.8,0.4,1.5,0.6,2.2h-1.1c-0.2-0.6-0.4-1.3-0.5-1.9c-0.2-1.1-0.7-1.6-1.6-1.6h-1v3.5h-1.1L202.5,50.3z
		 M203.6,54h1.1c1.1,0,1.8-0.6,1.8-1.6c0-1.1-0.8-1.5-1.9-1.5c-0.3,0-0.7,0-1,0.1L203.6,54L203.6,54z"/>
	<path class="st0" d="M211.7,50.1h1.1V54l0,0c0.2-0.3,0.4-0.6,0.6-0.9l2.5-3.1h1.3l-3,3.5l3.2,4.7h-1.2l-2.7-4l-0.8,0.9v3.1h-1.1
		L211.7,50.1L211.7,50.1z"/>
	<path class="st0" d="M94.4,23.8h-7.3v-3.9h19.2v3.9H99v21.6h-4.6V23.8z"/>
	<path class="st0" d="M107.3,18.6h4.7v11h0.1c0.6-0.9,1.4-1.6,2.3-2.1c1-0.6,2.1-0.8,3.2-0.8c3.1,0,6.4,2.1,6.4,8v10.8h-4.6V35.1
		c0-2.7-1-4.7-3.6-4.7c-1.6,0-3.1,1.1-3.6,2.6c-0.1,0.5-0.2,0.9-0.2,1.4v11h-4.7C107.3,45.4,107.3,18.6,107.3,18.6z"/>
	<path class="st0" d="M130.7,37.5c0.1,3.3,2.7,4.8,5.7,4.8c1.7,0,3.5-0.2,5.1-0.8l0.7,3.2c-2.1,0.8-4.2,1.2-6.4,1.1
		c-6,0-9.5-3.7-9.5-9.3c0-5.1,3.1-9.9,9-9.9c6,0,7.9,4.9,7.9,9c0,0.7,0,1.3-0.2,2L130.7,37.5z M138.8,34.3c0-1.7-0.7-4.5-3.8-4.5
		c-2.9,0-4.1,2.6-4.3,4.5H138.8z"/>
	<path class="st0" d="M156.5,19.9v14.9c0,5,2.1,7.3,5.2,7.3c3.4,0,5.4-2.3,5.4-7.3V19.9h4.6v14.5c0,7.9-4,11.3-10.2,11.3
		c-5.9,0-9.7-3.3-9.7-11.3V19.9H156.5z"/>
	<path class="st0" d="M175.6,20.3c2.2-0.4,4.5-0.6,6.8-0.5c3.4,0,5.6,0.4,7.3,1.6c1.7,1,2.7,2.8,2.6,4.8c0,2.3-1.5,4.5-4.2,5.5v0.1
		c2.7,0.7,5.1,2.8,5.1,6.3c0,2-0.9,4-2.5,5.3c-1.8,1.6-4.8,2.4-9.4,2.4c-1.9,0-3.8-0.1-5.7-0.3L175.6,20.3z M180.2,30.3h2.4
		c3.2,0,5-1.5,5-3.7c0-2.4-1.8-3.5-4.8-3.5c-0.9,0-1.8,0-2.6,0.2L180.2,30.3L180.2,30.3z M180.2,42.1c0.8,0.1,1.6,0.1,2.5,0.1
		c3,0,5.6-1.1,5.6-4.3c0-2.9-2.6-4.2-5.8-4.2h-2.3V42.1z"/>
	<path class="st0" d="M200.8,38.2l-2.2,7.2h-4.8l8.2-25.5h5.9l8.3,25.5h-5l-2.3-7.2H200.8z M208.1,34.7l-2-6.3
		c-0.5-1.6-0.9-3.3-1.3-4.8h-0.1c-0.4,1.5-0.8,3.3-1.2,4.8l-2,6.3H208.1z"/>
	<circle class="st1" cx="40.1" cy="40" r="23.9"/>
	<path class="st2" d="M40.9,47.1c-0.2-2-3.1-7-4.1-9.1l-3.2-6.4c0,0-1.3,5.9-2.3,10.4c-1,4.6-2.1,9.2-2,9.1c3,0,5.7,0,7.1,0
		C39.9,51.1,41.1,48.5,40.9,47.1 M38.3,31.6c0.2,2,3.1,7,4.1,9.1l3.2,6.4c0,0,1.3-5.9,2.3-10.4c1-4.6,2.1-9.2,2.1-9.1
		c-3,0-5.7,0-7.1,0C39.3,27.6,38.2,30.2,38.3,31.6"/>
	<rect x="86.9" y="61.8" class="st0" width="129.8" height="1.3"/>
	<circle class="st0" cx="8.7" cy="43.5" r="1.3"/>
	<circle class="st0" cx="71.3" cy="43.5" r="1.3"/>
</g>
</svg>
